<svg xmlns="http://www.w3.org/2000/svg" viewBox="0 0 220.588 71.614" width="220px" height="72px">
  <defs>
    <style>
      .cls-1 {
        fill: #151011;
        stroke: #151011;
        stroke-miterlimit: 3.864;
        stroke-width: 0.587px;
      }

      .cls-2 {
        fill: #fff200;
      }

      .cls-2, .cls-3 {
        stroke: #000;
        stroke-miterlimit: 3.864;
        stroke-width: 0.489px;
      }

      .cls-3 {
        fill: #ff0;
      }
    </style>
  </defs>
  <g id="WHlogoYellowBlack" transform="translate(-0.706 -14.206)">
    <g id="Group_26" data-name="Group 26" transform="translate(133.966 54.815)">
      <rect id="Rectangle_49" data-name="Rectangle 49" class="cls-1" width="30.592" height="29.978" transform="translate(0 30.592) rotate(-89.903)"/>
      <path id="Path_267" data-name="Path 267" class="cls-1" d="M241.9,105" transform="translate(-226.883 -89.721)"/>
    </g>
    <g id="Group_27" data-name="Group 27" transform="translate(95.795 54.718)">
      <rect id="Rectangle_50" data-name="Rectangle 50" class="cls-1" width="30.592" height="29.978" transform="translate(0 30.592) rotate(-89.901)"/>
      <path id="Path_268" data-name="Path 268" class="cls-1" d="M179.8,104.9" transform="translate(-164.759 -89.586)"/>
    </g>
    <g id="Group_28" data-name="Group 28" transform="translate(57.671 54.673)">
      <rect id="Rectangle_51" data-name="Rectangle 51" class="cls-1" width="30.592" height="29.978" transform="translate(0 30.592) rotate(-89.904)"/>
      <path id="Path_269" data-name="Path 269" class="cls-1" d="M117.7,104.8" transform="translate(-102.683 -89.502)"/>
    </g>
    <g id="Group_29" data-name="Group 29" transform="translate(39.108 14.609)">
      <rect id="Rectangle_52" data-name="Rectangle 52" class="cls-1" width="30.592" height="29.978" transform="translate(0 30.592) rotate(-89.899)"/>
      <path id="Path_270" data-name="Path 270" class="cls-1" d="M87.4,39.6" transform="translate(-72.433 -24.29)"/>
    </g>
    <g id="Group_30" data-name="Group 30" transform="translate(76.998 14.665)">
      <rect id="Rectangle_53" data-name="Rectangle 53" class="cls-1" width="30.592" height="29.978" transform="translate(0 30.592) rotate(-89.904)"/>
      <path id="Path_271" data-name="Path 271" class="cls-1" d="M149.1,39.7" transform="translate(-134.121 -24.385)"/>
    </g>
    <g id="Group_31" data-name="Group 31" transform="translate(115.074 14.684)">
      <path id="Path_272" data-name="Path 272" class="cls-1" d="M186.761,14.8l29.916.061V45.453H186.7Z" transform="translate(-186.7 -14.8)"/>
      <path id="Path_273" data-name="Path 273" class="cls-1" d="M211.1,39.8" transform="translate(-196.111 -24.443)"/>
    </g>
    <g id="Group_32" data-name="Group 32" transform="translate(153.038 14.746)">
      <path id="Path_274" data-name="Path 274" class="cls-1" d="M248.561,14.9l29.978.061-.061,30.653L248.5,45.553Z" transform="translate(-248.5 -14.9)"/>
      <path id="Path_275" data-name="Path 275" class="cls-1" d="M273,39.9" transform="translate(-257.95 -24.543)"/>
    </g>
    <path id="Path_276" data-name="Path 276" d="M334.2,124.994a2.53,2.53,0,0,0,2.519,2.519,2.457,2.457,0,1,0,0-4.914A2.389,2.389,0,0,0,334.2,124.994Zm.43,0a2.059,2.059,0,0,1,2.027-2.089,2.02,2.02,0,0,1,2.027,2.089,2.028,2.028,0,1,1-4.054,0Zm1.106,1.474h.43V125.24h.491l.8,1.229h.491l-.8-1.29c.43-.061.737-.246.737-.8s-.307-.8-.983-.8H335.8Zm.43-2.519h.614c.307,0,.614.061.614.43,0,.43-.369.491-.737.491h-.491Z" transform="translate(-128.517 -41.693)"/>
    <g id="Group_33" data-name="Group 33" transform="translate(1 14.5)">
      <path id="Path_277" data-name="Path 277" class="cls-1" d="M1.061,14.5l29.978.061-.061,30.592L1,45.092Z" transform="translate(-1 -14.5)"/>
      <path id="Path_278" data-name="Path 278" class="cls-1" d="M25.4,39.5" transform="translate(-10.411 -24.143)"/>
    </g>
    <g id="Group_34" data-name="Group 34" transform="translate(19.592 54.61)">
      <rect id="Rectangle_54" data-name="Rectangle 54" class="cls-1" width="30.592" height="29.978" transform="translate(0 30.592) rotate(-89.903)"/>
      <path id="Path_279" data-name="Path 279" class="cls-1" d="M55.7,104.7" transform="translate(-40.691 -89.401)"/>
    </g>
    <g id="Group_35" data-name="Group 35" transform="translate(190.97 14.826)">
      <rect id="Rectangle_55" data-name="Rectangle 55" class="cls-1" width="30.592" height="29.978" transform="translate(0 30.592) rotate(-89.902)"/>
      <path id="Path_280" data-name="Path 280" class="cls-1" d="M334.7,40" transform="translate(-319.68 -24.661)"/>
    </g>
    <g id="Group_36" data-name="Group 36" transform="translate(172.142 54.859)">
      <path id="Path_281" data-name="Path 281" class="cls-1" d="M279.661,80.2l29.978.061-.061,30.592-29.978-.061Z" transform="translate(-279.6 -80.2)"/>
      <path id="Path_282" data-name="Path 282" class="cls-1" d="M304.1,105.1" transform="translate(-289.05 -89.804)"/>
    </g>
    <g id="Group_48" data-name="Group 48" transform="translate(1.921 14.5)">
      <g id="Group_37" data-name="Group 37" transform="translate(132.995 40.298)">
        <path id="Path_283" data-name="Path 283" class="cls-2" d="M219,80.1l29.117.061-.061,28.995L219,109.095Z" transform="translate(-219 -80.1)"/>
        <path id="Path_284" data-name="Path 284" class="cls-3" d="M242.7,103.7" transform="translate(-228.141 -89.203)"/>
      </g>
      <g id="Group_38" data-name="Group 38" transform="translate(94.785 40.236)">
        <path id="Path_285" data-name="Path 285" class="cls-2" d="M156.861,80l29.056.061-.061,28.933H156.8Z" transform="translate(-156.8 -80)"/>
        <path id="Path_286" data-name="Path 286" class="cls-3" d="M180.5,103.6" transform="translate(-165.941 -89.103)"/>
      </g>
      <g id="Group_39" data-name="Group 39" transform="translate(56.721 40.141)">
        <rect id="Rectangle_56" data-name="Rectangle 56" class="cls-2" width="28.995" height="29.056" transform="translate(0 28.995) rotate(-89.909)"/>
        <path id="Path_287" data-name="Path 287" class="cls-3" d="M118.6,103.5" transform="translate(-104.001 -88.969)"/>
      </g>
      <g id="Group_40" data-name="Group 40" transform="translate(38.086 0.061)">
        <path id="Path_288" data-name="Path 288" class="cls-2" d="M64.5,14.6l29.118.061-.061,28.995L64.5,43.595Z" transform="translate(-64.5 -14.6)"/>
        <path id="Path_289" data-name="Path 289" class="cls-3" d="M88.2,38.3" transform="translate(-73.641 -23.741)"/>
      </g>
      <g id="Group_41" data-name="Group 41" transform="translate(75.874 0.149)">
        <rect id="Rectangle_57" data-name="Rectangle 57" class="cls-2" width="28.995" height="29.179" transform="matrix(0.002, -1, 1, 0.002, 0, 28.995)"/>
        <path id="Path_290" data-name="Path 290" class="cls-3" d="M149.8,38.4" transform="translate(-135.189 -23.867)"/>
      </g>
      <g id="Group_42" data-name="Group 42" transform="translate(114.013 0.184)">
        <path id="Path_291" data-name="Path 291" class="cls-2" d="M188.161,14.8l29.056.061V43.856L188.1,43.795Z" transform="translate(-188.1 -14.8)"/>
        <path id="Path_292" data-name="Path 292" class="cls-3" d="M211.8,38.5" transform="translate(-197.241 -23.941)"/>
      </g>
      <g id="Group_43" data-name="Group 43" transform="translate(152.038 0.246)">
        <path id="Path_293" data-name="Path 293" class="cls-2" d="M250.061,14.9l29.118.061-.061,28.995L250,43.895Z" transform="translate(-250 -14.9)"/>
        <path id="Path_294" data-name="Path 294" class="cls-3" d="M273.8,38.6" transform="translate(-259.18 -24.041)"/>
      </g>
      <g id="Group_44" data-name="Group 44">
        <path id="Path_295" data-name="Path 295" class="cls-2" d="M2.5,14.5l29.118.061-.061,28.995L2.5,43.495Z" transform="translate(-2.5 -14.5)"/>
        <path id="Path_296" data-name="Path 296" class="cls-3" d="M26.2,38.2" transform="translate(-11.641 -23.641)"/>
      </g>
      <g id="Group_45" data-name="Group 45" transform="translate(18.552 40.113)">
        <path id="Path_297" data-name="Path 297" class="cls-2" d="M32.761,79.8H61.879l-.061,28.995H32.7Z" transform="translate(-32.7 -79.8)"/>
        <path id="Path_298" data-name="Path 298" class="cls-3" d="M56.5,103.4" transform="translate(-41.88 -88.903)"/>
      </g>
      <g id="Group_46" data-name="Group 46" transform="translate(189.94 0.307)">
        <path id="Path_299" data-name="Path 299" class="cls-2" d="M311.761,15l29.056.061-.061,28.995L311.7,43.995Z" transform="translate(-311.7 -15)"/>
        <path id="Path_300" data-name="Path 300" class="cls-3" d="M335.4,38.7" transform="translate(-320.841 -24.141)"/>
      </g>
      <g id="Group_47" data-name="Group 47" transform="translate(171.142 40.359)">
        <path id="Path_301" data-name="Path 301" class="cls-2" d="M281.161,80.2l29.056.061-.061,28.995-29.056-.061Z" transform="translate(-281.1 -80.2)"/>
        <path id="Path_302" data-name="Path 302" class="cls-3" d="M304.8,103.8" transform="translate(-290.241 -89.303)"/>
      </g>
    </g>
    <g id="Group_49" data-name="Group 49" transform="translate(4.44 17.94)">
      <path id="Path_303" data-name="Path 303" d="M98.6,95.963a12.163,12.163,0,1,1,12.163,12.1A12.191,12.191,0,0,1,98.6,95.963Zm12.163,0,0,6.573a6.573,6.573,0,1,0-6.573-6.573A6.58,6.58,0,0,0,110.763,102.536Zm0-6.573" transform="translate(-42.085 -44.67)"/>
      <path id="Path_304" data-name="Path 304" d="M245.333,86.984v5.037a23.151,23.151,0,0,0-6.757-2.027c-2.7-.43-5.283.061-5.652,1.966a1.248,1.248,0,0,0,.86,1.044c3.133,1.29,14.006,1.966,12.1,10.013-1.659,7.064-11.242,5.406-18.367,2.949v-5.59c6.45,3.379,12.777,4.914,13.33.676.369-3.194-12.286-2.089-13.392-8.6-.676-4.3,3.809-6.634,7.924-6.88C239.19,85.263,242.937,86.553,245.333,86.984Z" transform="translate(-91.76 -45.334)"/>
      <path id="Path_305" data-name="Path 305" d="M258.6,20.5h5.16V38.253h13.392c.061,2.211,0,3.133,0,4.914H258.6Z" transform="translate(-103.798 -20.254)"/>
      <path id="Path_306" data-name="Path 306" d="M134.8,20.4h18.552v4.914H139.96v4.054h11.856v4.423H139.96v9.276H134.8Z" transform="translate(-56.048 -20.216)"/>
      <path id="Path_307" data-name="Path 307" d="M196.8,20.5h18.552v4.914H201.96v4.054h11.856c.061,1.474,0,2.7,0,4.423H201.96v9.276H196.8Z" transform="translate(-79.961 -20.254)"/>
      <path id="Path_308" data-name="Path 308" d="M320.2,20.7l18.613.061v4.914H325.422V29.73h11.856c.061,1.474,0,2.7,0,4.423H325.422v4.361h13.392c.061,2.273,0,3.071,0,4.914L320.2,43.367Z" transform="translate(-127.558 -20.331)"/>
      <path id="Path_309" data-name="Path 309" d="M289.6,85.8h18.613v4.914H294.821v4.054h11.856v4.423H294.821v4.361h13.392c.061,2.273,0,3.071,0,4.914H289.6Z" transform="translate(-115.755 -45.441)"/>
      <path id="Path_310" data-name="Path 310" d="M170.621,85.6c.061,1.9,0,4.361,0,6.634V97.7c.061,3.133,1.044,5.529,4.607,5.406,3.256-.061,3.624-2.4,3.686-5.406V85.661h5.037c.061,6.02,0,10.2,0,13.883-.8,5.59-3.317,8.662-8.846,8.723-5.9,0-8.907-3.01-9.706-8.723,0-3.624.061-7.74,0-13.944C166.26,85.661,169.639,85.6,170.621,85.6Z" transform="translate(-67.85 -45.364)"/>
      <path id="Path_311" data-name="Path 311" d="M40.161,85.4h5.283v9.03H55.15V85.4h5.037l-.061,22.422H55.089V98.853H45.383v8.969H40.1Z" transform="translate(-19.521 -45.287)"/>
      <path id="Path_312" data-name="Path 312" d="M6.6,20.1h4.976c.614,3.87.676,6.45,1.413,10.75,1.106-3.133,1.9-5.713,3.379-10.689h5.221c1.474,5.713,2.273,8.17,2.826,10.75L26.2,20.161H30.68L27.3,42.337H22.449c-.8-3.071-2.887-10.812-3.87-14.252L14.4,42.337H9.979Z" transform="translate(-6.6 -20.1)"/>
      <path id="Path_313" data-name="Path 313" d="M78.623,20.2h5.16L92.26,42.929H86.732L84.95,37.892H77.087l-1.781,5.037H69.9Zm-.184,13.944H83.66L81.142,25.79H81.08Z" transform="translate(-31.015 -20.139)"/>
    </g>
  </g>
</svg>
